<svg xmlns="http://www.w3.org/2000/svg" viewBox="0 0 512 512" role="img" aria-label="Still Together Classics">
  <defs>
    <linearGradient id="felt" x1="0" y1="0" x2="0" y2="1">
      <stop offset="0" stop-color="#1a4433"/><stop offset="1" stop-color="#0c1f18"/>
    </linearGradient>
    <linearGradient id="gold" x1="0" y1="0" x2="0" y2="1">
      <stop offset="0" stop-color="#f3d896"/><stop offset="1" stop-color="#b2935a"/>
    </linearGradient>
  </defs>
  <rect width="512" height="512" rx="112" fill="url(#felt)"/>
  <g fill="url(#gold)">
    <!-- spade, top left -->
    <path d="M148 92c-4 0-7 3-10 7-14 20-53 49-53 83 0 23 18 39 39 39 8 0 15-2 21-6l-12 41h30l-12-41c6 4 13 6 21 6 21 0 39-16 39-39 0-34-39-63-53-83-3-4-6-7-10-7z"/>
    <!-- heart, top right -->
    <path d="M364 256c-2 0-4-1-5-2-30-25-61-50-61-84 0-23 17-38 37-38 12 0 23 6 29 15 6-9 17-15 29-15 20 0 37 15 37 38 0 34-31 59-61 84-1 1-3 2-5 2z"/>
    <!-- chess knight, bottom left -->
    <path d="M110 420h84c0-44-8-68-24-88 6-8 8-16 6-24-3-11-12-17-12-17l-8 13-22-11c-8-4-14 0-19 7l-20 30c-4 6-3 13 2 17l14 10-11 20c-4 8 0 17 8 21l10 5c-5 5-8 11-8 17z"/>
    <!-- disc, bottom right -->
    <circle cx="364" cy="378" r="66"/>
    <circle cx="364" cy="378" r="28" fill="#12302380"/>
  </g>
</svg>
